<svg version="1.0" xmlns="http://www.w3.org/2000/svg" width="646.667" height="646.667" viewBox="0 0 485 485"><path d="M27.1 51.6c-11.5 8.1 1.1 28.8 15.1 24.8 7.1-2.1 9.5-11.8 4.7-18.8-4.6-6.8-14.4-9.7-19.8-6zM253 56c-4.4 1.9-6 4.1-6 8.1 0 4.1 3 8.5 7.2 10.8 3.6 1.9 6.1 6.6 4.8 9-1.3 2.5-2.8 2.9-12.9 4.1-10 1.1-15.2 2.5-21.5 5.7-5.9 3-13.7 10.7-16.3 16.1l-1.8 4-8-4.1c-29.8-14.9-52.6-17.6-63.2-7.4-7.5 7.1-7.8 14.5-1.8 38.2 4.5 17.5 5.3 28.1 3.1 39-2 9.6-6.5 19.7-10.9 24.4-9.4 9.9-24.7 9.3-36.5-1.3-2.2-2-4.4-3.6-5.1-3.6-3.2 0-2 14.1 2.1 22.7 1.2 2.4 4.3 6.9 7.1 9.9 9.5 10.4 29 17.1 47.5 16.2 7.9-.4 9.9-.9 16.4-4.1 9.7-4.7 16.6-12.1 24.9-26.2 7.4-12.7 12.1-17.8 19.3-21.1 17.6-8 38 0 46.2 18.1 2.2 4.9 2.8 7.7 3 15.5.4 11-1.4 17.5-6.7 24.1l-3.2 4-3.7-5.8c-5-7.9-12.7-14.8-20.8-18.6-6-2.9-7.7-3.2-15.7-3.2-8.1 0-9.7.3-15.5 3.2-8.9 4.4-11.9 7.8-20 23.2-8.5 16-11.1 19.6-16.4 22.3-5.9 3-12 1.4-21.3-5.6-17-12.8-36.3-9.3-41.4 7.5-1.5 4.9-1.2 16.4.6 20.5 1.1 2.6 1.2 4.1.4 6.2-.6 1.4-1 5.4-1 8.7 0 14.7 8.3 25.8 24.6 33 27 11.8 39 25.1 42.5 47.1 1 6.3 1 6.8-2 12.6-5.4 11-3.5 16.7 8.4 24.7 13.7 9.3 27.9 15.1 46.6 19.1 20.5 4.4 42 1.4 55.6-7.6 5.9-3.9 9.6-8.3 12.6-15.1 2.7-6 2.2-17.7-1-23.9-4.3-8.4-14.1-14.8-27.6-17.9-3.8-.9-9-2.7-11.5-4-5.1-2.5-11.9-9.4-14.6-14.5-2.8-5.4-4.5-16-4.5-28.4v-11.8l3.7 3.2c8.7 7.7 20.8 9.5 32.8 5 22.8-8.7 20.9-8.3 46-9 21.2-.5 23.3-.7 27.2-2.8 5.1-2.7 8.7-7.8 10.4-14.7 2.5-10.6 7.9-15.1 17.1-14.3 7.3.7 12.7 4.9 14.6 11.3 2.3 7.9 1.2 22.5-2.1 29.6-4.9 10.3-12.6 16-23.8 17.8-11.1 1.8-21.7-.6-45.4-10.5-14.4-5.9-27.9-5.8-40.5.6-18.6 9.4-21.4 32.3-5 40.8 3.9 2 5.4 2.2 11.5 1.7 20.8-1.7 28.3-1.7 35.6 0 9.8 2.2 19 6.7 24.5 12 3.9 3.7 4.5 4.8 4.2 7.6-.4 4.2-5 7.5-11.6 8.4-7.8 1.1-7.9 1.2-4.1 5.1 9.8 10.2 26.2 19.4 38.1 21.4 14.2 2.4 26.7-.5 42-9.6 10-6.1 15.7-12.3 20.8-22.8 3.9-7.9 6.8-20.6 5.5-24.5-.8-2.6.7-3.7 7-5.5 15.6-4.5 27.7-16.6 32.7-33.1 4.2-13.4 2.4-36.7-4.1-53.9-1-2.6-.8-3.2 2.8-7.1 4.4-4.8 6.9-9.3 9.7-17.5 1.5-4.3 1.9-8.4 1.9-19 0-13.9-.7-17.4-5.7-28.8-1.6-3.6-2-7.2-2.3-21-.2-9.5-1-20.6-2-25.7-6.4-35.4-28.9-69.5-59.1-89.7C375.2 69.9 363 67.5 363 78c0 3 1 5.1 4.8 10 8.8 11.7 9.3 12.5 9 15-.4 3.8-4.8 3.8-12.2.1-3.3-1.8-14.1-9.2-24-16.5-23.5-17.7-37.8-24.7-58.6-29-10.1-2-25.8-2.9-29-1.6z"/><path d="M172.4 61.9c-5.2 2.4-7.4 5.5-7.4 10.5 0 5.5 3.2 10 9.2 13 18 9 34.1-9.1 18.6-20.7-6.7-4.9-13.6-5.9-20.4-2.8zm-82.3 70.2c-4.9 2.9-6.9 5.7-8.7 11.8-5.9 19.7 11.1 42.9 27.9 38.1 5.2-1.4 9.6-5.3 12.3-10.8 2.7-5.2 2.5-18-.3-24.2-2.7-6-6.8-10.7-12.2-14.2-5.7-3.6-13.8-3.9-19-.7zm-52 85.5c-4.2 5.3-1.3 15.7 5.3 18.8 4.8 2.2 6.3 2 9.7-1.3 3.3-3.3 3.7-7.1 1.5-12.5-3.1-7.5-12.4-10.3-16.5-5zm72.3 158.8c-12.6 5.5-5.1 22.8 9.9 22.9 6.5.1 9.5-1.5 11.3-6 1.2-2.7 1.3-4.2.4-6.8-1.4-4.3-6.8-9.1-11.7-10.4-4.8-1.4-6.1-1.3-9.9.3z"/></svg>