<svg xmlns="http://www.w3.org/2000/svg" width="1561" height="608"><path d="M0 0v320h1c3.993-10.37 4.125-21.071 5.17-32 2.096-21.926 3.629-41.796 2.82-64-.402-11.012-5.924-31.825 3.403-40.566 6.741-6.318 11.974 2.176 18.607 1.975 3.86-.117 6.902-3.259 11-3.386C57.497 181.544 73.377 184 89 184c35.791 0 70.92-4.101 107-4.985 37.76-.926 75.398 1.534 113 1.981 34.829.414 70.117-4.127 105-4.981 143.087-3.506 285.887-8.523 429-12.03 17.311-.424 34.657-2.901 52-2.984 68.13-.329 137.07-.26 205-4.911 10.39-.712 27.05-2.924 37-.321 10.08 2.636 12.99 10.805 24.94 5.967 7.96-3.222 6.85-27.949 8.14-35.736 1.86-11.255-1.21-23.63-1.99-35-1.31-19.114-1-40.041 1.49-59 1.31-10.037-.29-24.116 8.42-31l-31-1H0z" fill="#fff"/><path d="M1242 598c19.14 7.134 40.83-22.66 54-34.911 33.53-31.175 69.49-59.592 104.06-89.495 14.12-12.211 31.54-21.479 43.67-35.594 4.69-5.463 11.47-9.54 15.67-15.285 1.84-2.517 1.62-5.835 3.46-8.34 4.83-6.577 12.84-13.459 19.14-18.696 7.5-6.227 13.25-14.693 21-4.679 9.57-4.562 9.72-15.695 16.19-22.996 10.64-12.016 44.98-16.03 41.66-35.899-1.04-6.205-12.17-11.941-15.45-18.105-7.02-13.183-5.78-28.08-15.96-39.721-4.52-5.166-11.97-2.406-17.34-5.303-5.86-3.165-11.8-10.084-17.1-14.364-7.69-6.205-16.46-11.046-23.91-17.477-26.14-22.575-48.16-48.299-73.09-72.096-10.16-9.693-23.43-15.055-34-24.325-30.04-26.35-57.9-55.478-91-78.165-19.95-13.674-41.55-24.039-60-39.974-7.74-6.688-16.35-20.699-27-22.361-17.66-2.757-16.69 24.808-16.99 36.786-.44 17.967-1.76 35.97-.97 54 .64 14.533 3.11 27.549.57 42-2.08 11.885 2.07 28.184-13.61 30.039-8.13.962-10.9-6.373-18-7.632-10.64-1.888-25.03.339-36 .608l-209 5c-190.985 4.679-382.175 11.589-573 19.946-12.078.529-23.979-1.652-36-1.946-28.618-.702-57.373-.152-86-.014-32.84.158-65.649 4.192-98 4.984-19.337.474-38.842-2.755-58-1.966-3.663.151-6.55 2.752-10 2.887-6.047.237-10.085-6.05-16.895-3.164C9.067 183.877 7.85 191.16 7.52 196c-.894 13.134 1.49 25.864 2.39 39 1.589 23.206-2.345 46.087-5.196 69-.738 5.932-4.222 12.26-4.293 18-.107 8.712 2.256 19.212 3.293 28 1.699 14.404.333 25.579 9.25 37.941 5.22 7.237 13.374-.759 17.343 3.52 3.279 3.536 1.152 9.015 5.797 12.83 12.895 10.592 30.266 14.26 41.431 27.71 4.672 5.627 10.438 11.536 13.897 17.999 1.896 3.543 2.252 8.843 6.661 10.353 4.456 1.527 9.232-2.539 13.906-1.987 4.848.572 9.094 3.595 14 3.877 18.731 1.076 40.319-5.723 59-7.958 32.312-3.864 66.45-1.285 99-1.285 67.065 0 133.976-2.327 201-1.999 44.569.218 90.131 2.927 135 .96 23.238-1.019 46.675-6.274 70-7.871 13.177-.903 26.709 1.221 40 .895 31.645-.775 63.229-1.985 95-1.985 35.63 0 71.485-2.522 107-.09 59.942 4.105 120.36-8.836 180-8.108 11.79.145 25.09 2.162 37 1.028 5.67-.539 15.75-2.724 20.4 1.908 5.33 5.324.04 23.472-.42 30.262-1.65 24.063-6.32 55.998 3.9 78.941 2.34 5.262 9.45 4.121 12.8 9.103 6.87 10.222 14.9 19.616 21.62 29.956 3.85 5.924 6.07 13.061 11.72 17.61 7.83 6.319 22.15 6.789 22.98-5.61z" fill="#010101"/><path d="M1188 0v1c16.92 8.778 29.67 27.823 46 38.591 14.26 9.406 30.39 16.409 44 26.823 30.4 23.248 57.05 50.355 86 75.158 9.65 8.264 21.55 13.18 31 21.602 14.36 12.797 25.34 28.465 39 41.811 23.46 22.923 50.16 43.911 76.38 63.426 4.57 3.404 11.62 1.215 16.56 4.446 19.61 12.813 7.53 48.265 34.06 56.143V0h-373m5 40c-8.99 30.146-4.78 67.685.54 98 2.22 12.66 1.64 25.471-12.54 30 0 5.213 1.28 13.654-3.3 17.397-4.62 3.765-14.33 1.284-19.7.773-13.25-1.262-26.79.226-40 .869-42.38 2.06-84.45 2.961-127 2.961-23.578 0-48.6-2.477-72 .285-22.733 2.684-45.233 1.288-68 .73-22.286-.546-44.767.418-67-1.105-13.388-.916-28.772-4.54-42-3.802-30.566 1.706-61.278 5.507-92 6.853-26.381 1.155-52.741-2.072-79-.922-22.694.994-45.251 5.389-68 5.946-24.815.608-50.203 1.062-75-.024-11.453-.502-23.573-3.29-35-2.687-12.837.678-25.884 4.112-39 4.687-31.867 1.395-64.099.039-96 .039-52.852 0-104.433 2.405-157 6.09-9.158.641-18.996.992-28 2.715-5.748 1.1-12.125 4.463-18 3.967-8.054-.681-15.658-6.376-22-10.772l-8 160c66.763 0 133.261-9.971 200-9.971 90.033 0 181.156.002 271 .99 37.318.41 74.59 2.422 112 1.977 25.942-.308 52.069-2.821 78-3.957 48.623-2.129 97.342-.783 146-2.054 82.666-2.158 165.146-6.985 248-6.985 22.35 0 44.72 1 67 1 11.08 0 25.25-2.376 36 .318 18.65 4.676 13 22.787 13 35.682 0 35.36-5.79 69.651-4.99 105 .26 11.357.25 22.904.07 34.17-.04 2.564-1.1 10.194 3.11 10.194 4.09.001 11.38-8.619 14.81-11.093 14.22-10.245 27.88-21.289 42-31.666 58.46-42.976 116.96-84.963 171-133.775 15.25-13.77 31.63-26.279 47-39.996 3.69-3.293 14.55-10.064 13.96-15.744-.5-4.872-12.28-14.5-15.75-18.26-4.23-4.574-6.64-10.372-11.25-14.725-12.82-12.119-28.72-21.485-41.96-33.279-38.31-34.135-71.81-73.103-110-107.656-14.32-12.961-29.99-23.224-45-35.174-19.89-15.835-41.18-39.14-66-46.996m275 339c21.59-6.399 33.86-29.314 41.88-48 3.93-9.157 9.3-16.096 4.12-26l-22.1 18.676L1479.14 336l-3.79 17-7.35 26M0 324v284h1226v-1c-12.79-5.624-17.82-21.254-25.73-32-4.99-6.769-10.04-15.681-15.9-21.566-3.04-3.047-7.89-1.889-10.51-5.582-3.24-4.556-3.37-12.472-4.02-17.852-1.37-11.404-2.84-22.489-2.84-34 .01-15.009 2.41-30.072 3.83-45 .53-5.599 1.9-13.556-4.85-15.177-7.42-1.782-14.55.169-21.98.169-10.65 0-21.53-1.184-32-1.386-54.92-1.055-109.71 8.394-165 8.394-72.632 0-145.381.206-218 1.985-13.032.32-26.04-1.513-39-.946-23.739 1.04-47.391 6.886-71 7.922-48.592 2.131-97.615-.961-146-.961-46.711 0-93.329 3.158-140 2.015-28.629-.702-57.362-.015-86-.015-20.7 0-42.459-1.171-63 1.285-18.432 2.205-39.062 8.473-57.576 7.808-4.663-.167-8.835-3.054-13.424-3.764-4.784-.74-10.659 3.425-14.906 1.539-4.568-2.029-4.94-8.058-7.237-11.868-4.092-6.784-10.229-14.393-15.947-19.871-11.059-10.593-26.162-14.651-37.867-23.838-4.986-3.914-3.007-10.34-6.66-13.63-2.852-2.568-7.874 1.746-11.38 1.002-5.34-1.134-10.253-10.076-12.366-14.753C-.305 361.542 9.544 337.967 0 324m1527.33 9.667l.34.666-.34-.666M1560 339c-4.2 14.009-28.76 16.433-38.96 26.105-8.07 7.659-8.64 19.129-18.04 25.895-5.81-11.063-13.27-2.954-20 2.946-6.75 5.919-14.66 12.547-20.14 19.648-2.12 2.747-1.85 6.404-4.18 9.121-3.91 4.565-9.25 7.776-13.25 12.3-13.46 15.191-31.09 25.06-46.24 38.579-33.49 29.888-68.48 57.962-102.19 87.692-10.44 9.205-20.55 18.79-31 28-4.05 3.571-8.39 9.639-14 10.71-3.3.631-6.86-1.158-10-1.996-.59 4.373-2.16 6.811-6 9v1h325V364l-1-25m-142 94c29.22-16.887 33.79-51.901 40-82-8.42 3.903-26.22 16.167-29.6 25-3.11 8.134-1.38 17.594-3.29 26-2.47 10.91-7.1 19.461-7.11 31M200 370c4.574 7.476 18.872 3.328 26 2-10.492-5.711-15.354-2.257-26-2m37 1v1c5.216 2.283 10.263 1.22 13-4l-13 3m786-2c2.76 14.918-10.29 17.321-20 25.329-9.654 7.962-12 14.64-12 26.671l62-5c.11-13.531 6.59-26.908 18.96-33.155 4.67-2.358 15.36-15.21 17.96-1.83 1.21 6.235-6.19 8.891-9.75 12.209-6.1 5.684-13.29 14.276-14.17 22.776 22.99-.015 45.86-4 69-4 14.24 0 24.91-1.227 37 7 4.27-14.429 1-33.945 1-49-30.92 0-62.11.313-93-1.039-17.33-.759-40.21-4.925-57 .039m-101 53l37 1.17 11.397-1.349L974.229 410l11.945-19L1006 371c-14.348 0-28.756.034-43 1.715-3.713.438-8.332-.554-11.826.888-4.13 1.706-7.139 7.268-10.189 10.397-11.09 11.378-18.287 21.752-18.985 38m-749-48c3.17 3.096 5.277 2.228 8-1l-8 1m-19 0l6 2v-2h-6m699 47v1l35-.985 16.772-1.333L910.333 408 924 374c-10.1 0-24.581-2.107-33.867 2.653-3.108 1.592-4.732 5.244-7.241 7.593-7.403 6.931-17.453 14.487-23.24 22.758-3.134 4.479-2.833 9.997-6.652 13.996z" fill="#fff"/><path d="M1137.98 375.812c-9.66-.166-20.47 10.12-24.31 18.188-2.36 4.976-3.28 14.667 4.35 14.898 13.62.413 8.59-11.869 14.54-18.403 2.75-3.011 8.14-3.757 9.83-7.754 1.49-3.503-.68-6.865-4.41-6.929z" fill="#010101"/><path d="M588 424c4.522 2.574 9.692 7.605 14.209 9.383 3.379 1.33 8.223-.331 11.791-.379 10.61-.143 21.488-1.234 32-2.733 4.004-.571 9.369-.554 12.348-3.704 3.265-3.452 3.888-9.391 6.026-13.567 4.86-9.493 20.574-26.973 32.625-25.743 6.273.64 10.533 6.451 5.848 11.65-5.238 5.812-37.569 25.639-14.847 27.922 12.113 1.218 24.826.176 37 .171 4.852-.002 12.477.572 16.776-2.027 3.952-2.389 6.317-9.236 8.945-12.973 5.227-7.433 11.96-14.956 19.279-20.39 3.638-2.702 10.063-6.935 14.852-4.992 5.145 2.088 2.231 8.389-.196 11.367-5.634 6.914-14.168 10.494-20.222 16.775-2.339 2.427-3.012 6.847.08 9.061 3.633 2.602 11.24 1.186 15.486 1.179 14.619-.023 29.311-1 44-1 4.402 0 14.036 1.767 17.377-1.742 2.743-2.881-1.168-7.471-2.377-10.258l12.746-14L870 377c-7.435-2.198-16.278-1-24-1-18.023 0-36.021 1.173-54 1.961-33.829 1.481-68.106 1.855-102 1.024-19.249-.471-44.336-4.016-62.956 2.548-5.526 1.949-7.367 10.237-11.218 14.452C606.174 406.554 593.393 409.751 588 424m-100-34c-11.412-2.953-23.299-2-35-2-4.978 0-11.321-1.027-16 .934-17.094 7.167-28.464 22.283-40.39 34.914-3.784 4.007-9.433 2.02-11.524-2.863-1.443-3.373 1.298-6.23 2.863-8.985 4.867-8.568 14.163-13.187 18.051-22-30.066 0-59.736-3.93-84.996 14.634-7.443 5.47-11.052 14.335-16.558 21.318-1.86 2.359-4.542 4.86-7.402 2.506C283.948 417.676 309.855 398.889 314 390c-14.952 0-30.261-3.012-45 .924-12.255 3.272-23.309 12.324-34 18.887-6.301 3.868-25.651 14.762-18.971 24.871C219.347 439.704 235.606 437 241 437c24.689 0 49.277-1 74-1 58.793 0 117.345-3 176-3h52c6.623 0 16.601 1.596 22.682-1.589 3.823-2.002 5.456-14.341 8.219-18.411 8.187-12.058 22.755-17.399 31.099-29-11.397 0-22.643 1.707-34 1.985-14.399.353-29.973-.925-44 2.942-8.099 2.232-15.368 7.796-23 11.281-5.68 2.593-10.458 4.231-14.03 9.793-3.959 6.163-2.349 25.422-14.93 16.346C457.755 413.879 483.273 400.13 488 390m-362 50c3.631-12.789 11.929-20.442 19.424-30.96 2.102-2.949 7.629-6.153 7.57-10.061-.133-8.803-17.846-5.968-22.994-5.055-12.112 2.146-30.624 19.183-25.258 33.072 3.105 8.035 13.634 11.52 21.258 13.004m15-1l41 .91 14.436-2.652L200.101 427l9.364-15.985L225 394c-13.398 0-31.48-2.502-44 2.966-9.946 4.344-16.999 13.291-24.209 20.864-6.21 6.523-13.971 11.757-15.791 21.17m1267-45c-10.75 6.801-30.58 18.376-36 30 18.83 8.488-4.69 41.05-7 54 25.13-13.036 32.17-35.348 37.88-61 1.44-6.428 7.5-16.83 5.12-23M76 396c.54 7.152 6.772 11.367 13 14 1.725-3.104 6.739-8.982 5.338-12.682-1.81-4.783-14.614-2.009-18.338-1.318m1210 149c28.41-10.93 25.63-47.999 36.32-71 2.86-6.139 15.65-17.449 17.53-3.995.87 6.276-4.31 12.863-5.64 18.995-1.39 6.396-4.55 12.545-5.21 19 7.77-2.241 18.74-8.809 22.67-16.17 2.7-5.069-3.01-9.472-1.89-14.83 3.35-15.963 9.8-31.309 14.22-47-8.99 2.645-16.49 9.913-24 15.29-21.28 15.231-39.67 34.024-61 49.062-8.35 5.883-27.74 15.906-31.61 25.737-1.48 3.749-.14 8.752-1.42 12.911-3.81 12.391-9.46 24.173-11.88 37-.8 4.286-2.55 13.99 3.96 15.003 5.74.892 12.5-7.421 15.91-11.003 14.66-15.391 12.32-38.168 19.27-57 1.87-5.07 4.07-18.976 10.78-19.454 5.99-.426 7.94 6.853 7.53 11.454-1.08 11.924-9.12 23.846-5.54 36m127.33-108.333l.34.666-.34-.666M1218 562l4-22c-13.46 3.779-11.15 13.497-4 22z" fill="#fff"/></svg>