<svg xmlns="http://www.w3.org/2000/svg" width="50" height="50"><path d="M12 23.403V10.389l-.12-.089h-.01L9.14 8.28c-1.67-1.24-4.05-1.18-5.53.28A5.4 5.4 0 002 12.41v3.602l10 7.391zm26-.013v.013l10-7.391V12.41c0-1.49-.6-2.85-1.58-3.83a4.17 4.17 0 00-5.424-.403L38.12 10.3l-.12.089V23.39zm-24 1.478l10.406 7.692a1 1 0 001.189 0L36 24.868V11.867L25 20l-11-8.133v13.001zm24 1.021V41a1 1 0 001 1h6.5a2.5 2.5 0 002.5-2.5V18.497l-10 7.392zm-26 0L2 18.497V39.5A2.5 2.5 0 004.5 42H11a1 1 0 001-1V25.889z"/></svg>