<svg xmlns="http://www.w3.org/2000/svg" width="50" height="50"><path d="M25 2C12.318 2 2 12.318 2 25s10.318 23 23 23 23-10.318 23-23S37.682 2 25 2zm5.648 7.002c3.823-.064 6.975 1.328 7.633 3.912.943 3.697-2.266 8.118-6.375 9.707-3.669 1.42-6.702 1.196-7.949.787-1.417-.465-2.247-1.4-2.45-1.928-.078-.207-.216-.551 0-.671.134-.074.186-.057.542.336.339.373 1.699 1.375 4.283 1.085 6.783-.76 10.867-6.03 9.576-8.867-.904-1.985-6.13-2.879-12.662.375-7.973 3.973-8.405 7.248-8.473 8.492-.187 3.421 4.223 5.221 6.608 7.766.056.06.11.12.164.182.722-.27 1.721-.42 3.31-.448 3.858-.066 6.038 2.476 5.948 4.75-.07 1.791-1.714 2.53-2.02 2.58-.222.039-.344.046-.375-.128-.022-.12.059-.176.319-.338.26-.161 1.038-.693 1.177-1.664.14-.97-.587-3.29-4.3-3.723-1.316-.154-2.353-.05-3.24.186.643 1.419.767 4.274-.714 6.484-1.535 2.29-4.391 3.681-7.175 2.906-.898-.25-2.257-2.105-1.086-4.693 1.11-2.453 5.85-4.853 6.498-5.172v-.012c-2.197-1.89-7.54-4.44-8.293-8.34-.214-1.105.303-3.752 3.552-6.79 2.733-2.557 6.535-4.513 10.045-5.76 1.844-.655 3.72-.985 5.457-1.014zm-9.85 23.07a9.22 9.22 0 01-.193.106l.002.008c.001-.001-2.206 1.04-3.74 2.662-1.426 1.507-1.822 3.398-1.027 3.859.737.427 2.453-.079 3.683-1.42a5.95 5.95 0 00.979-1.426 5.268 5.268 0 00.254-.625c.318-.962.35-2.025.043-3.164z"/></svg>