<svg width="580" height="400" xmlns="http://www.w3.org/2000/svg"><path fill="#fff" id="canvas_background" d="M-1-1h582v402H-1z"/><g stroke="null" id="svg_5"><path stroke="null" id="svg_4" d="M425.71 61.482c-5.077-4.284-13.052-4.897-21.298-1.603h-.014c-8.672 3.462-245.485 104.531-255.126 108.66-1.753.606-17.067 6.292-15.49 18.956 1.409 11.417 13.717 16.146 15.22 16.692l60.205 20.511c3.994 13.23 18.719 62.04 21.975 72.467 2.031 6.5 5.342 15.042 11.144 16.8 5.09 1.954 10.154.169 13.431-2.391l36.808-33.97 59.42 46.108 1.415.842c4.035 1.779 7.9 2.668 11.59 2.668 2.85 0 5.586-.532 8.199-1.597 8.902-3.637 12.463-12.078 12.836-13.034l44.383-229.546c2.708-12.26-1.056-18.498-4.698-21.563zm-163.406 171.42l-20.31 53.89-20.31-67.361 155.709-114.514-115.09 127.986z"/></g></svg>